<?xml version="1.0" encoding="UTF-8" standalone="no"?>
<!DOCTYPE svg PUBLIC "-//W3C//DTD SVG 1.1//EN"
 "http://www.w3.org/Graphics/SVG/1.1/DTD/svg11.dtd">
<!-- Generated by graphviz version 2.43.0 (0)
 -->
<!-- Title: G Pages: 1 -->
<svg width="1425pt" height="361pt"
 viewBox="0.00 0.00 1424.96 361.09" xmlns="http://www.w3.org/2000/svg" xmlns:xlink="http://www.w3.org/1999/xlink">
<g id="graph0" class="graph" transform="scale(1 1) rotate(0) translate(4 357.09)">
<title>G</title>
<polygon fill="white" stroke="transparent" points="-4,4 -4,-357.09 1420.96,-357.09 1420.96,4 -4,4"/>
<g id="clust1" class="cluster">
<title>cluster_1</title>
<polygon fill="none" stroke="black" points="954.96,-270.09 954.96,-345.09 1408.96,-345.09 1408.96,-270.09 954.96,-270.09"/>
<text text-anchor="middle" x="1181.96" y="-329.89" font-family="Times,serif" font-size="14.00">Legend</text>
</g>
<!-- TIN&#45;3 -->
<g id="node1" class="node">
<title>TIN&#45;3</title>
<ellipse fill="orange" stroke="orange" cx="537.96" cy="-206.35" rx="156.96" ry="26.74"/>
<text text-anchor="middle" x="537.96" y="-210.15" font-family="Times,serif" font-size="14.00">TIN&#45;3</text>
<text text-anchor="middle" x="537.96" y="-195.15" font-family="Times,serif" font-size="14.00">define Register API endpoint</text>
</g>
<!-- TIN&#45;5 -->
<g id="node9" class="node">
<title>TIN&#45;5</title>
<ellipse fill="gold" stroke="gold" cx="487.96" cy="-116.61" rx="180.12" ry="26.74"/>
<text text-anchor="middle" x="487.96" y="-120.41" font-family="Times,serif" font-size="14.00">TIN&#45;5</text>
<text text-anchor="middle" x="487.96" y="-105.41" font-family="Times,serif" font-size="14.00">implement Register API endpoint</text>
</g>
<!-- TIN&#45;3&#45;&gt;TIN&#45;5 -->
<g id="edge9" class="edge">
<title>TIN&#45;3&#45;&gt;TIN&#45;5</title>
<path fill="none" stroke="black" d="M523.23,-179.5C518.39,-171.01 512.93,-161.43 507.77,-152.38"/>
<polygon fill="black" stroke="black" points="510.75,-150.53 502.76,-143.58 504.67,-154 510.75,-150.53"/>
</g>
<!-- TIN&#45;8 -->
<g id="node2" class="node">
<title>TIN&#45;8</title>
<ellipse fill="coral" stroke="coral" cx="815.96" cy="-116.61" rx="130.22" ry="26.74"/>
<text text-anchor="middle" x="815.96" y="-120.41" font-family="Times,serif" font-size="14.00">TIN&#45;8</text>
<text text-anchor="middle" x="815.96" y="-105.41" font-family="Times,serif" font-size="14.00">UI mock for Login page</text>
</g>
<!-- TIN&#45;10 -->
<g id="node6" class="node">
<title>TIN&#45;10</title>
<ellipse fill="darkgreen" stroke="darkgreen" cx="972.96" cy="-26.87" rx="125.32" ry="26.74"/>
<text text-anchor="middle" x="972.96" y="-30.67" font-family="Times,serif" font-size="14.00">TIN&#45;10</text>
<text text-anchor="middle" x="972.96" y="-15.67" font-family="Times,serif" font-size="14.00">Implement Login page</text>
</g>
<!-- TIN&#45;8&#45;&gt;TIN&#45;10 -->
<g id="edge5" class="edge">
<title>TIN&#45;8&#45;&gt;TIN&#45;10</title>
<path fill="none" stroke="black" d="M859.69,-91.17C878.57,-80.62 900.82,-68.18 920.58,-57.14"/>
<polygon fill="black" stroke="black" points="922.44,-60.11 929.46,-52.18 919.02,-54 922.44,-60.11"/>
</g>
<!-- TIN&#45;2 -->
<g id="node3" class="node">
<title>TIN&#45;2</title>
<ellipse fill="gold" stroke="gold" cx="840.96" cy="-206.35" rx="103.48" ry="26.74"/>
<text text-anchor="middle" x="840.96" y="-210.15" font-family="Times,serif" font-size="14.00">TIN&#45;2</text>
<text text-anchor="middle" x="840.96" y="-195.15" font-family="Times,serif" font-size="14.00">create users table</text>
</g>
<!-- TIN&#45;2&#45;&gt;TIN&#45;5 -->
<g id="edge8" class="edge">
<title>TIN&#45;2&#45;&gt;TIN&#45;5</title>
<path fill="none" stroke="black" d="M767.82,-187.17C715.7,-174.22 645.02,-156.65 587.73,-142.41"/>
<polygon fill="black" stroke="black" points="588.48,-138.99 577.93,-139.97 586.79,-145.78 588.48,-138.99"/>
</g>
<!-- TIN&#45;6 -->
<g id="node10" class="node">
<title>TIN&#45;6</title>
<ellipse fill="gold" stroke="gold" cx="1129.96" cy="-116.61" rx="165.43" ry="26.74"/>
<text text-anchor="middle" x="1129.96" y="-120.41" font-family="Times,serif" font-size="14.00">TIN&#45;6</text>
<text text-anchor="middle" x="1129.96" y="-105.41" font-family="Times,serif" font-size="14.00">implement Login API endpoint</text>
</g>
<!-- TIN&#45;2&#45;&gt;TIN&#45;6 -->
<g id="edge10" class="edge">
<title>TIN&#45;2&#45;&gt;TIN&#45;6</title>
<path fill="none" stroke="black" d="M906.54,-185.44C947.5,-173.01 1000.66,-156.86 1044.85,-143.45"/>
<polygon fill="black" stroke="black" points="1045.87,-146.8 1054.43,-140.54 1043.84,-140.1 1045.87,-146.8"/>
</g>
<!-- TIN&#45;7 -->
<g id="node4" class="node">
<title>TIN&#45;7</title>
<ellipse fill="coral" stroke="coral" cx="144.96" cy="-116.61" rx="144.91" ry="26.74"/>
<text text-anchor="middle" x="144.96" y="-120.41" font-family="Times,serif" font-size="14.00">TIN&#45;7</text>
<text text-anchor="middle" x="144.96" y="-105.41" font-family="Times,serif" font-size="14.00">UI mock for Register page</text>
</g>
<!-- TIN&#45;9 -->
<g id="node8" class="node">
<title>TIN&#45;9</title>
<ellipse fill="darkgreen" stroke="darkgreen" cx="316.96" cy="-26.87" rx="140.01" ry="26.74"/>
<text text-anchor="middle" x="316.96" y="-30.67" font-family="Times,serif" font-size="14.00">TIN&#45;9</text>
<text text-anchor="middle" x="316.96" y="-15.67" font-family="Times,serif" font-size="14.00">Implement Register page</text>
</g>
<!-- TIN&#45;7&#45;&gt;TIN&#45;9 -->
<g id="edge7" class="edge">
<title>TIN&#45;7&#45;&gt;TIN&#45;9</title>
<path fill="none" stroke="black" d="M192.87,-91.17C213.74,-80.52 238.37,-67.96 260.16,-56.84"/>
<polygon fill="black" stroke="black" points="261.98,-59.84 269.3,-52.18 258.8,-53.61 261.98,-59.84"/>
</g>
<!-- TIN&#45;4 -->
<g id="node5" class="node">
<title>TIN&#45;4</title>
<ellipse fill="orange" stroke="orange" cx="1116.96" cy="-206.35" rx="142.26" ry="26.74"/>
<text text-anchor="middle" x="1116.96" y="-210.15" font-family="Times,serif" font-size="14.00">TIN&#45;4</text>
<text text-anchor="middle" x="1116.96" y="-195.15" font-family="Times,serif" font-size="14.00">define Login API endpoint</text>
</g>
<!-- TIN&#45;4&#45;&gt;TIN&#45;6 -->
<g id="edge11" class="edge">
<title>TIN&#45;4&#45;&gt;TIN&#45;6</title>
<path fill="none" stroke="black" d="M1120.86,-179.03C1122.04,-171.06 1123.36,-162.17 1124.61,-153.68"/>
<polygon fill="black" stroke="black" points="1128.1,-154.02 1126.1,-143.61 1121.18,-152.99 1128.1,-154.02"/>
</g>
<!-- TIN&#45;1 -->
<g id="node7" class="node">
<title>TIN&#45;1</title>
<ellipse fill="orange" stroke="orange" cx="840.96" cy="-296.09" rx="103.89" ry="26.74"/>
<text text-anchor="middle" x="840.96" y="-299.89" font-family="Times,serif" font-size="14.00">TIN&#45;1</text>
<text text-anchor="middle" x="840.96" y="-284.89" font-family="Times,serif" font-size="14.00">define User model</text>
</g>
<!-- TIN&#45;1&#45;&gt;TIN&#45;3 -->
<g id="edge1" class="edge">
<title>TIN&#45;1&#45;&gt;TIN&#45;3</title>
<path fill="none" stroke="black" d="M773.33,-275.51C729.7,-262.87 672.5,-246.31 625.41,-232.68"/>
<polygon fill="black" stroke="black" points="626.11,-229.23 615.53,-229.81 624.16,-235.96 626.11,-229.23"/>
</g>
<!-- TIN&#45;1&#45;&gt;TIN&#45;2 -->
<g id="edge2" class="edge">
<title>TIN&#45;1&#45;&gt;TIN&#45;2</title>
<path fill="none" stroke="black" d="M840.96,-268.77C840.96,-260.8 840.96,-251.91 840.96,-243.42"/>
<polygon fill="black" stroke="black" points="844.46,-243.35 840.96,-233.35 837.46,-243.35 844.46,-243.35"/>
</g>
<!-- TIN&#45;1&#45;&gt;TIN&#45;4 -->
<g id="edge3" class="edge">
<title>TIN&#45;1&#45;&gt;TIN&#45;4</title>
<path fill="none" stroke="black" d="M904.97,-274.74C944.27,-262.25 994.93,-246.14 1036.87,-232.81"/>
<polygon fill="black" stroke="black" points="1038.04,-236.11 1046.51,-229.75 1035.92,-229.44 1038.04,-236.11"/>
</g>
<!-- TIN&#45;5&#45;&gt;TIN&#45;9 -->
<g id="edge6" class="edge">
<title>TIN&#45;5&#45;&gt;TIN&#45;9</title>
<path fill="none" stroke="black" d="M439.41,-90.7C418.85,-80.15 394.76,-67.79 373.4,-56.83"/>
<polygon fill="black" stroke="black" points="374.94,-53.69 364.44,-52.23 371.74,-59.91 374.94,-53.69"/>
</g>
<!-- TIN&#45;6&#45;&gt;TIN&#45;10 -->
<g id="edge4" class="edge">
<title>TIN&#45;6&#45;&gt;TIN&#45;10</title>
<path fill="none" stroke="black" d="M1085.39,-90.7C1066.6,-80.2 1044.6,-67.91 1025.06,-56.99"/>
<polygon fill="black" stroke="black" points="1026.72,-53.91 1016.28,-52.08 1023.31,-60.02 1026.72,-53.91"/>
</g>
<!-- frontend -->
<g id="node11" class="node">
<title>frontend</title>
<ellipse fill="darkgreen" stroke="darkgreen" cx="1349.96" cy="-296.09" rx="50.89" ry="18"/>
<text text-anchor="middle" x="1349.96" y="-292.39" font-family="Times,serif" font-size="14.00">frontend</text>
</g>
<!-- backend -->
<g id="node12" class="node">
<title>backend</title>
<ellipse fill="gold" stroke="gold" cx="1231.96" cy="-296.09" rx="49.29" ry="18"/>
<text text-anchor="middle" x="1231.96" y="-292.39" font-family="Times,serif" font-size="14.00">backend</text>
</g>
<!-- design -->
<g id="node13" class="node">
<title>design</title>
<ellipse fill="coral" stroke="coral" cx="1122.96" cy="-296.09" rx="41.69" ry="18"/>
<text text-anchor="middle" x="1122.96" y="-292.39" font-family="Times,serif" font-size="14.00">design</text>
</g>
<!-- common -->
<g id="node14" class="node">
<title>common</title>
<ellipse fill="orange" stroke="orange" cx="1012.96" cy="-296.09" rx="50.09" ry="18"/>
<text text-anchor="middle" x="1012.96" y="-292.39" font-family="Times,serif" font-size="14.00">common</text>
</g>
</g>
</svg>
