<?xml version="1.0" encoding="UTF-8" standalone="no"?>
<!DOCTYPE svg PUBLIC "-//W3C//DTD SVG 1.1//EN"
 "http://www.w3.org/Graphics/SVG/1.1/DTD/svg11.dtd">
<!-- Generated by graphviz version 2.43.0 (0)
 -->
<!-- Title: G Pages: 1 -->
<svg width="1360pt" height="361pt"
 viewBox="0.00 0.00 1360.06 361.09" xmlns="http://www.w3.org/2000/svg" xmlns:xlink="http://www.w3.org/1999/xlink">
<g id="graph0" class="graph" transform="scale(1 1) rotate(0) translate(4 357.09)">
<title>G</title>
<polygon fill="white" stroke="transparent" points="-4,4 -4,-357.09 1356.06,-357.09 1356.06,4 -4,4"/>
<g id="clust1" class="cluster">
<title>cluster_1</title>
<polygon fill="none" stroke="black" points="819.96,-270.09 819.96,-345.09 1273.96,-345.09 1273.96,-270.09 819.96,-270.09"/>
<text text-anchor="middle" x="1046.96" y="-329.89" font-family="Times,serif" font-size="14.00">Legend</text>
</g>
<!-- TIN&#45;8 -->
<g id="node1" class="node">
<title>TIN&#45;8</title>
<ellipse fill="darkgreen" stroke="darkgreen" cx="1065.96" cy="-26.87" rx="125.32" ry="26.74"/>
<text text-anchor="middle" x="1065.96" y="-30.67" font-family="Times,serif" font-size="14.00">TIN&#45;8</text>
<text text-anchor="middle" x="1065.96" y="-15.67" font-family="Times,serif" font-size="14.00">Implement Login page</text>
</g>
<!-- TIN&#45;4 -->
<g id="node2" class="node">
<title>TIN&#45;4</title>
<ellipse fill="gold" stroke="gold" cx="910.96" cy="-116.61" rx="162.77" ry="26.74"/>
<text text-anchor="middle" x="910.96" y="-120.41" font-family="Times,serif" font-size="14.00">TIN&#45;4</text>
<text text-anchor="middle" x="910.96" y="-105.41" font-family="Times,serif" font-size="14.00">implement login API endpoint</text>
</g>
<!-- TIN&#45;4&#45;&gt;TIN&#45;8 -->
<g id="edge1" class="edge">
<title>TIN&#45;4&#45;&gt;TIN&#45;8</title>
<path fill="none" stroke="black" d="M954.96,-90.7C973.35,-80.29 994.85,-68.12 1014.01,-57.27"/>
<polygon fill="black" stroke="black" points="1015.94,-60.21 1022.92,-52.23 1012.49,-54.11 1015.94,-60.21"/>
</g>
<!-- TIN&#45;9 -->
<g id="node3" class="node">
<title>TIN&#45;9</title>
<ellipse fill="orange" stroke="orange" cx="450.96" cy="-206.35" rx="133.79" ry="26.74"/>
<text text-anchor="middle" x="450.96" y="-210.15" font-family="Times,serif" font-size="14.00">TIN&#45;9</text>
<text text-anchor="middle" x="450.96" y="-195.15" font-family="Times,serif" font-size="14.00">define register endpoint</text>
</g>
<!-- TIN&#45;3 -->
<g id="node10" class="node">
<title>TIN&#45;3</title>
<ellipse fill="gold" stroke="gold" cx="484.96" cy="-116.61" rx="177.47" ry="26.74"/>
<text text-anchor="middle" x="484.96" y="-120.41" font-family="Times,serif" font-size="14.00">TIN&#45;3</text>
<text text-anchor="middle" x="484.96" y="-105.41" font-family="Times,serif" font-size="14.00">implement register API endpoint</text>
</g>
<!-- TIN&#45;9&#45;&gt;TIN&#45;3 -->
<g id="edge11" class="edge">
<title>TIN&#45;9&#45;&gt;TIN&#45;3</title>
<path fill="none" stroke="black" d="M460.97,-179.5C464.2,-171.18 467.82,-161.82 471.26,-152.95"/>
<polygon fill="black" stroke="black" points="474.54,-154.17 474.89,-143.58 468.02,-151.64 474.54,-154.17"/>
</g>
<!-- TIN&#45;2 -->
<g id="node4" class="node">
<title>TIN&#45;2</title>
<ellipse fill="gold" stroke="gold" cx="705.96" cy="-206.35" rx="103.48" ry="26.74"/>
<text text-anchor="middle" x="705.96" y="-210.15" font-family="Times,serif" font-size="14.00">TIN&#45;2</text>
<text text-anchor="middle" x="705.96" y="-195.15" font-family="Times,serif" font-size="14.00">create users table</text>
</g>
<!-- TIN&#45;2&#45;&gt;TIN&#45;4 -->
<g id="edge3" class="edge">
<title>TIN&#45;2&#45;&gt;TIN&#45;4</title>
<path fill="none" stroke="black" d="M757.95,-183.1C784.38,-171.78 816.78,-157.92 844.96,-145.86"/>
<polygon fill="black" stroke="black" points="846.52,-149 854.33,-141.85 843.76,-142.56 846.52,-149"/>
</g>
<!-- TIN&#45;2&#45;&gt;TIN&#45;3 -->
<g id="edge10" class="edge">
<title>TIN&#45;2&#45;&gt;TIN&#45;3</title>
<path fill="none" stroke="black" d="M651.04,-183.55C622.2,-172.1 586.52,-157.93 555.63,-145.67"/>
<polygon fill="black" stroke="black" points="556.79,-142.37 546.21,-141.93 554.21,-148.87 556.79,-142.37"/>
</g>
<!-- TIN&#45;6 -->
<g id="node5" class="node">
<title>TIN&#45;6</title>
<ellipse fill="coral" stroke="coral" cx="1221.96" cy="-116.61" rx="130.22" ry="26.74"/>
<text text-anchor="middle" x="1221.96" y="-120.41" font-family="Times,serif" font-size="14.00">TIN&#45;6</text>
<text text-anchor="middle" x="1221.96" y="-105.41" font-family="Times,serif" font-size="14.00">UI mock for Login page</text>
</g>
<!-- TIN&#45;6&#45;&gt;TIN&#45;8 -->
<g id="edge2" class="edge">
<title>TIN&#45;6&#45;&gt;TIN&#45;8</title>
<path fill="none" stroke="black" d="M1178.5,-91.17C1159.74,-80.62 1137.63,-68.18 1118,-57.14"/>
<polygon fill="black" stroke="black" points="1119.61,-54.03 1109.18,-52.18 1116.18,-60.13 1119.61,-54.03"/>
</g>
<!-- TIN&#45;7 -->
<g id="node6" class="node">
<title>TIN&#45;7</title>
<ellipse fill="darkgreen" stroke="darkgreen" cx="314.96" cy="-26.87" rx="140.01" ry="26.74"/>
<text text-anchor="middle" x="314.96" y="-30.67" font-family="Times,serif" font-size="14.00">TIN&#45;7</text>
<text text-anchor="middle" x="314.96" y="-15.67" font-family="Times,serif" font-size="14.00">Implement Register page</text>
</g>
<!-- TIN&#45;5 -->
<g id="node7" class="node">
<title>TIN&#45;5</title>
<ellipse fill="coral" stroke="coral" cx="144.96" cy="-116.61" rx="144.91" ry="26.74"/>
<text text-anchor="middle" x="144.96" y="-120.41" font-family="Times,serif" font-size="14.00">TIN&#45;5</text>
<text text-anchor="middle" x="144.96" y="-105.41" font-family="Times,serif" font-size="14.00">UI mock for Register page</text>
</g>
<!-- TIN&#45;5&#45;&gt;TIN&#45;7 -->
<g id="edge8" class="edge">
<title>TIN&#45;5&#45;&gt;TIN&#45;7</title>
<path fill="none" stroke="black" d="M192.31,-91.17C212.94,-80.52 237.28,-67.96 258.82,-56.84"/>
<polygon fill="black" stroke="black" points="260.58,-59.88 267.86,-52.18 257.36,-53.66 260.58,-59.88"/>
</g>
<!-- TIN&#45;10 -->
<g id="node8" class="node">
<title>TIN&#45;10</title>
<ellipse fill="orange" stroke="orange" cx="944.96" cy="-206.35" rx="118.17" ry="26.74"/>
<text text-anchor="middle" x="944.96" y="-210.15" font-family="Times,serif" font-size="14.00">TIN&#45;10</text>
<text text-anchor="middle" x="944.96" y="-195.15" font-family="Times,serif" font-size="14.00">define login endpoint</text>
</g>
<!-- TIN&#45;10&#45;&gt;TIN&#45;4 -->
<g id="edge4" class="edge">
<title>TIN&#45;10&#45;&gt;TIN&#45;4</title>
<path fill="none" stroke="black" d="M934.94,-179.5C931.72,-171.18 928.09,-161.82 924.65,-152.95"/>
<polygon fill="black" stroke="black" points="927.9,-151.64 921.02,-143.58 921.37,-154.17 927.9,-151.64"/>
</g>
<!-- TIN&#45;1 -->
<g id="node9" class="node">
<title>TIN&#45;1</title>
<ellipse fill="orange" stroke="orange" cx="705.96" cy="-296.09" rx="103.89" ry="26.74"/>
<text text-anchor="middle" x="705.96" y="-299.89" font-family="Times,serif" font-size="14.00">TIN&#45;1</text>
<text text-anchor="middle" x="705.96" y="-284.89" font-family="Times,serif" font-size="14.00">define User model</text>
</g>
<!-- TIN&#45;1&#45;&gt;TIN&#45;9 -->
<g id="edge5" class="edge">
<title>TIN&#45;1&#45;&gt;TIN&#45;9</title>
<path fill="none" stroke="black" d="M645.2,-274.19C609.49,-261.9 564.04,-246.26 526.08,-233.2"/>
<polygon fill="black" stroke="black" points="527.2,-229.88 516.61,-229.94 524.92,-236.5 527.2,-229.88"/>
</g>
<!-- TIN&#45;1&#45;&gt;TIN&#45;2 -->
<g id="edge6" class="edge">
<title>TIN&#45;1&#45;&gt;TIN&#45;2</title>
<path fill="none" stroke="black" d="M705.96,-268.77C705.96,-260.8 705.96,-251.91 705.96,-243.42"/>
<polygon fill="black" stroke="black" points="709.46,-243.35 705.96,-233.35 702.46,-243.35 709.46,-243.35"/>
</g>
<!-- TIN&#45;1&#45;&gt;TIN&#45;10 -->
<g id="edge9" class="edge">
<title>TIN&#45;1&#45;&gt;TIN&#45;10</title>
<path fill="none" stroke="black" d="M764.12,-273.74C797.46,-261.5 839.54,-246.05 874.72,-233.13"/>
<polygon fill="black" stroke="black" points="876.27,-236.3 884.45,-229.56 873.86,-229.72 876.27,-236.3"/>
</g>
<!-- TIN&#45;3&#45;&gt;TIN&#45;7 -->
<g id="edge7" class="edge">
<title>TIN&#45;3&#45;&gt;TIN&#45;7</title>
<path fill="none" stroke="black" d="M436.7,-90.7C416.25,-80.15 392.3,-67.79 371.07,-56.83"/>
<polygon fill="black" stroke="black" points="372.65,-53.71 362.16,-52.23 369.44,-59.93 372.65,-53.71"/>
</g>
<!-- design -->
<g id="node11" class="node">
<title>design</title>
<ellipse fill="coral" stroke="coral" cx="1223.96" cy="-296.09" rx="41.69" ry="18"/>
<text text-anchor="middle" x="1223.96" y="-292.39" font-family="Times,serif" font-size="14.00">design</text>
</g>
<!-- common -->
<g id="node12" class="node">
<title>common</title>
<ellipse fill="orange" stroke="orange" cx="1113.96" cy="-296.09" rx="50.09" ry="18"/>
<text text-anchor="middle" x="1113.96" y="-292.39" font-family="Times,serif" font-size="14.00">common</text>
</g>
<!-- frontend -->
<g id="node13" class="node">
<title>frontend</title>
<ellipse fill="darkgreen" stroke="darkgreen" cx="994.96" cy="-296.09" rx="50.89" ry="18"/>
<text text-anchor="middle" x="994.96" y="-292.39" font-family="Times,serif" font-size="14.00">frontend</text>
</g>
<!-- backend -->
<g id="node14" class="node">
<title>backend</title>
<ellipse fill="gold" stroke="gold" cx="876.96" cy="-296.09" rx="49.29" ry="18"/>
<text text-anchor="middle" x="876.96" y="-292.39" font-family="Times,serif" font-size="14.00">backend</text>
</g>
</g>
</svg>
