<?xml version="1.0" encoding="UTF-8" standalone="no"?>
<!DOCTYPE svg PUBLIC "-//W3C//DTD SVG 1.1//EN"
 "http://www.w3.org/Graphics/SVG/1.1/DTD/svg11.dtd">
<!-- Generated by graphviz version 2.43.0 (0)
 -->
<!-- Title: G Pages: 1 -->
<svg width="1813pt" height="361pt"
 viewBox="0.00 0.00 1813.21 361.09" xmlns="http://www.w3.org/2000/svg" xmlns:xlink="http://www.w3.org/1999/xlink">
<g id="graph0" class="graph" transform="scale(1 1) rotate(0) translate(4 357.09)">
<title>G</title>
<polygon fill="white" stroke="transparent" points="-4,4 -4,-357.09 1809.21,-357.09 1809.21,4 -4,4"/>
<g id="clust1" class="cluster">
<title>cluster_1</title>
<polygon fill="none" stroke="black" points="1433.21,-270.09 1433.21,-345.09 1797.21,-345.09 1797.21,-270.09 1433.21,-270.09"/>
<text text-anchor="middle" x="1615.21" y="-329.89" font-family="Times,serif" font-size="14.00">Legend</text>
</g>
<!-- XYZ&#45;9 -->
<g id="node1" class="node">
<title>XYZ&#45;9</title>
<ellipse fill="gold" stroke="gold" cx="120.21" cy="-296.09" rx="120.42" ry="26.74"/>
<text text-anchor="middle" x="120.21" y="-299.89" font-family="Times,serif" font-size="14.00">XYZ&#45;9</text>
<text text-anchor="middle" x="120.21" y="-284.89" font-family="Times,serif" font-size="14.00">Define Purchases API</text>
</g>
<!-- XYZ&#45;6 -->
<g id="node9" class="node">
<title>XYZ&#45;6</title>
<ellipse fill="orange" stroke="orange" cx="227.21" cy="-206.35" rx="195.32" ry="26.74"/>
<text text-anchor="middle" x="227.21" y="-210.15" font-family="Times,serif" font-size="14.00">XYZ&#45;6</text>
<text text-anchor="middle" x="227.21" y="-195.15" font-family="Times,serif" font-size="14.00">Implement Purchases API endpoints</text>
</g>
<!-- XYZ&#45;9&#45;&gt;XYZ&#45;6 -->
<g id="edge9" class="edge">
<title>XYZ&#45;9&#45;&gt;XYZ&#45;6</title>
<path fill="none" stroke="black" d="M150.87,-269.95C162.42,-260.48 175.72,-249.57 187.95,-239.54"/>
<polygon fill="black" stroke="black" points="190.28,-242.15 195.8,-233.11 185.85,-236.74 190.28,-242.15"/>
</g>
<!-- XYZ&#45;2 -->
<g id="node2" class="node">
<title>XYZ&#45;2</title>
<ellipse fill="orange" stroke="orange" cx="402.21" cy="-296.09" rx="143.59" ry="26.74"/>
<text text-anchor="middle" x="402.21" y="-299.89" font-family="Times,serif" font-size="14.00">XYZ&#45;2</text>
<text text-anchor="middle" x="402.21" y="-284.89" font-family="Times,serif" font-size="14.00">Implement Product model</text>
</g>
<!-- XYZ&#45;5 -->
<g id="node4" class="node">
<title>XYZ&#45;5</title>
<ellipse fill="orange" stroke="orange" cx="628.21" cy="-206.35" rx="188.18" ry="26.74"/>
<text text-anchor="middle" x="628.21" y="-210.15" font-family="Times,serif" font-size="14.00">XYZ&#45;5</text>
<text text-anchor="middle" x="628.21" y="-195.15" font-family="Times,serif" font-size="14.00">Implement Products API endpoints</text>
</g>
<!-- XYZ&#45;2&#45;&gt;XYZ&#45;5 -->
<g id="edge1" class="edge">
<title>XYZ&#45;2&#45;&gt;XYZ&#45;5</title>
<path fill="none" stroke="black" d="M462.48,-271.69C491.15,-260.56 525.66,-247.16 555.75,-235.48"/>
<polygon fill="black" stroke="black" points="557.29,-238.64 565.35,-231.75 554.76,-232.11 557.29,-238.64"/>
</g>
<!-- XYZ&#45;2&#45;&gt;XYZ&#45;6 -->
<g id="edge7" class="edge">
<title>XYZ&#45;2&#45;&gt;XYZ&#45;6</title>
<path fill="none" stroke="black" d="M353.46,-270.65C332.67,-260.22 308.21,-247.96 286.39,-237.02"/>
<polygon fill="black" stroke="black" points="287.72,-233.78 277.22,-232.42 284.59,-240.03 287.72,-233.78"/>
</g>
<!-- XYZ&#45;7 -->
<g id="node3" class="node">
<title>XYZ&#45;7</title>
<ellipse fill="gold" stroke="gold" cx="1325.21" cy="-296.09" rx="97.66" ry="26.74"/>
<text text-anchor="middle" x="1325.21" y="-299.89" font-family="Times,serif" font-size="14.00">XYZ&#45;7</text>
<text text-anchor="middle" x="1325.21" y="-284.89" font-family="Times,serif" font-size="14.00">Define Users API</text>
</g>
<!-- XYZ&#45;4 -->
<g id="node6" class="node">
<title>XYZ&#45;4</title>
<ellipse fill="orange" stroke="orange" cx="1325.21" cy="-206.35" rx="173.48" ry="26.74"/>
<text text-anchor="middle" x="1325.21" y="-210.15" font-family="Times,serif" font-size="14.00">XYZ&#45;4</text>
<text text-anchor="middle" x="1325.21" y="-195.15" font-family="Times,serif" font-size="14.00">Implement Users API endpoints</text>
</g>
<!-- XYZ&#45;7&#45;&gt;XYZ&#45;4 -->
<g id="edge4" class="edge">
<title>XYZ&#45;7&#45;&gt;XYZ&#45;4</title>
<path fill="none" stroke="black" d="M1325.21,-268.77C1325.21,-260.8 1325.21,-251.91 1325.21,-243.42"/>
<polygon fill="black" stroke="black" points="1328.71,-243.35 1325.21,-233.35 1321.71,-243.35 1328.71,-243.35"/>
</g>
<!-- XYZ&#45;10 -->
<g id="node7" class="node">
<title>XYZ&#45;10</title>
<ellipse fill="coral" stroke="coral" cx="628.21" cy="-116.61" rx="145.83" ry="26.74"/>
<text text-anchor="middle" x="628.21" y="-120.41" font-family="Times,serif" font-size="14.00">XYZ&#45;10</text>
<text text-anchor="middle" x="628.21" y="-105.41" font-family="Times,serif" font-size="14.00">Display available products</text>
</g>
<!-- XYZ&#45;5&#45;&gt;XYZ&#45;10 -->
<g id="edge5" class="edge">
<title>XYZ&#45;5&#45;&gt;XYZ&#45;10</title>
<path fill="none" stroke="black" d="M628.21,-179.03C628.21,-171.06 628.21,-162.17 628.21,-153.68"/>
<polygon fill="black" stroke="black" points="631.71,-153.61 628.21,-143.61 624.71,-153.61 631.71,-153.61"/>
</g>
<!-- XYZ&#45;8 -->
<g id="node5" class="node">
<title>XYZ&#45;8</title>
<ellipse fill="gold" stroke="gold" cx="677.21" cy="-296.09" rx="113.27" ry="26.74"/>
<text text-anchor="middle" x="677.21" y="-299.89" font-family="Times,serif" font-size="14.00">XYZ&#45;8</text>
<text text-anchor="middle" x="677.21" y="-284.89" font-family="Times,serif" font-size="14.00">Define Products API</text>
</g>
<!-- XYZ&#45;8&#45;&gt;XYZ&#45;5 -->
<g id="edge2" class="edge">
<title>XYZ&#45;8&#45;&gt;XYZ&#45;5</title>
<path fill="none" stroke="black" d="M662.77,-269.24C658.03,-260.75 652.68,-251.17 647.63,-242.12"/>
<polygon fill="black" stroke="black" points="650.64,-240.34 642.71,-233.32 644.53,-243.76 650.64,-240.34"/>
</g>
<!-- XYZ&#45;11 -->
<g id="node11" class="node">
<title>XYZ&#45;11</title>
<ellipse fill="coral" stroke="coral" cx="1109.21" cy="-116.61" rx="101.23" ry="26.74"/>
<text text-anchor="middle" x="1109.21" y="-120.41" font-family="Times,serif" font-size="14.00">XYZ&#45;11</text>
<text text-anchor="middle" x="1109.21" y="-105.41" font-family="Times,serif" font-size="14.00">Sign up &amp; Sign in</text>
</g>
<!-- XYZ&#45;4&#45;&gt;XYZ&#45;11 -->
<g id="edge13" class="edge">
<title>XYZ&#45;4&#45;&gt;XYZ&#45;11</title>
<path fill="none" stroke="black" d="M1265.33,-181.03C1236.37,-169.27 1201.62,-155.15 1172.26,-143.22"/>
<polygon fill="black" stroke="black" points="1173.51,-139.95 1162.93,-139.43 1170.88,-146.44 1173.51,-139.95"/>
</g>
<!-- XYZ&#45;13 -->
<g id="node10" class="node">
<title>XYZ&#45;13</title>
<ellipse fill="gold" stroke="gold" cx="628.21" cy="-26.87" rx="93.18" ry="26.74"/>
<text text-anchor="middle" x="628.21" y="-30.67" font-family="Times,serif" font-size="14.00">XYZ&#45;13</text>
<text text-anchor="middle" x="628.21" y="-15.67" font-family="Times,serif" font-size="14.00">Acceptance Test</text>
</g>
<!-- XYZ&#45;10&#45;&gt;XYZ&#45;13 -->
<g id="edge10" class="edge">
<title>XYZ&#45;10&#45;&gt;XYZ&#45;13</title>
<path fill="none" stroke="black" d="M628.21,-89.29C628.21,-81.32 628.21,-72.43 628.21,-63.94"/>
<polygon fill="black" stroke="black" points="631.71,-63.87 628.21,-53.87 624.71,-63.87 631.71,-63.87"/>
</g>
<!-- XYZ&#45;3 -->
<g id="node8" class="node">
<title>XYZ&#45;3</title>
<ellipse fill="orange" stroke="orange" cx="984.21" cy="-206.35" rx="149.81" ry="26.74"/>
<text text-anchor="middle" x="984.21" y="-210.15" font-family="Times,serif" font-size="14.00">XYZ&#45;3</text>
<text text-anchor="middle" x="984.21" y="-195.15" font-family="Times,serif" font-size="14.00">Implement Purchase model</text>
</g>
<!-- XYZ&#45;12 -->
<g id="node12" class="node">
<title>XYZ&#45;12</title>
<ellipse fill="coral" stroke="coral" cx="238.21" cy="-116.61" rx="214.92" ry="26.74"/>
<text text-anchor="middle" x="238.21" y="-120.41" font-family="Times,serif" font-size="14.00">XYZ&#45;12</text>
<text text-anchor="middle" x="238.21" y="-105.41" font-family="Times,serif" font-size="14.00">Allow users to create and see purchases</text>
</g>
<!-- XYZ&#45;6&#45;&gt;XYZ&#45;12 -->
<g id="edge14" class="edge">
<title>XYZ&#45;6&#45;&gt;XYZ&#45;12</title>
<path fill="none" stroke="black" d="M230.51,-179.03C231.51,-171.06 232.62,-162.17 233.69,-153.68"/>
<polygon fill="black" stroke="black" points="237.18,-153.97 234.95,-143.61 230.23,-153.1 237.18,-153.97"/>
</g>
<!-- XYZ&#45;11&#45;&gt;XYZ&#45;13 -->
<g id="edge11" class="edge">
<title>XYZ&#45;11&#45;&gt;XYZ&#45;13</title>
<path fill="none" stroke="black" d="M1027.61,-100.73C941.03,-84.93 804.7,-60.06 715.87,-43.86"/>
<polygon fill="black" stroke="black" points="716.28,-40.38 705.82,-42.03 715.03,-47.26 716.28,-40.38"/>
</g>
<!-- XYZ&#45;12&#45;&gt;XYZ&#45;13 -->
<g id="edge12" class="edge">
<title>XYZ&#45;12&#45;&gt;XYZ&#45;13</title>
<path fill="none" stroke="black" d="M339.4,-92.84C403.76,-78.37 486,-59.86 546.25,-46.31"/>
<polygon fill="black" stroke="black" points="547.11,-49.7 556.1,-44.09 545.58,-42.87 547.11,-49.7"/>
</g>
<!-- XYZ&#45;1 -->
<g id="node13" class="node">
<title>XYZ&#45;1</title>
<ellipse fill="orange" stroke="orange" cx="984.21" cy="-296.09" rx="127.97" ry="26.74"/>
<text text-anchor="middle" x="984.21" y="-299.89" font-family="Times,serif" font-size="14.00">XYZ&#45;1</text>
<text text-anchor="middle" x="984.21" y="-284.89" font-family="Times,serif" font-size="14.00">Imlpement User model</text>
</g>
<!-- XYZ&#45;1&#45;&gt;XYZ&#45;4 -->
<g id="edge3" class="edge">
<title>XYZ&#45;1&#45;&gt;XYZ&#45;4</title>
<path fill="none" stroke="black" d="M1062.87,-274.85C1112.21,-262.16 1176.17,-245.7 1228.58,-232.21"/>
<polygon fill="black" stroke="black" points="1229.75,-235.53 1238.56,-229.64 1228.01,-228.75 1229.75,-235.53"/>
</g>
<!-- XYZ&#45;1&#45;&gt;XYZ&#45;3 -->
<g id="edge6" class="edge">
<title>XYZ&#45;1&#45;&gt;XYZ&#45;3</title>
<path fill="none" stroke="black" d="M984.21,-268.77C984.21,-260.8 984.21,-251.91 984.21,-243.42"/>
<polygon fill="black" stroke="black" points="987.71,-243.35 984.21,-233.35 980.71,-243.35 987.71,-243.35"/>
</g>
<!-- XYZ&#45;1&#45;&gt;XYZ&#45;6 -->
<g id="edge8" class="edge">
<title>XYZ&#45;1&#45;&gt;XYZ&#45;6</title>
<path fill="none" stroke="black" d="M881.56,-279.96C854.78,-276.23 825.94,-272.4 799.21,-269.22 636.02,-249.84 594.52,-251.56 431.21,-233.22 413.09,-231.19 394.08,-228.93 375.26,-226.63"/>
<polygon fill="black" stroke="black" points="375.49,-223.13 365.13,-225.39 374.63,-230.08 375.49,-223.13"/>
</g>
<!-- Common -->
<g id="node14" class="node">
<title>Common</title>
<ellipse fill="gold" stroke="gold" cx="1737.21" cy="-296.09" rx="51.99" ry="18"/>
<text text-anchor="middle" x="1737.21" y="-292.39" font-family="Times,serif" font-size="14.00">Common</text>
</g>
<!-- Backend -->
<g id="node15" class="node">
<title>Backend</title>
<ellipse fill="orange" stroke="orange" cx="1617.21" cy="-296.09" rx="50.09" ry="18"/>
<text text-anchor="middle" x="1617.21" y="-292.39" font-family="Times,serif" font-size="14.00">Backend</text>
</g>
<!-- Frontend -->
<g id="node16" class="node">
<title>Frontend</title>
<ellipse fill="coral" stroke="coral" cx="1495.21" cy="-296.09" rx="53.89" ry="18"/>
<text text-anchor="middle" x="1495.21" y="-292.39" font-family="Times,serif" font-size="14.00">Frontend</text>
</g>
</g>
</svg>
